<svg width="555" height="651" viewBox="0 0 555 651" fill="none" xmlns="http://www.w3.org/2000/svg">
<path d="M355.857 232.978C396.894 281.184 422.477 338.386 430.682 391.882C438.886 445.379 429.707 495.122 401.285 528.509C372.863 561.896 330.519 572.679 284.977 563.041C239.437 553.403 190.742 523.351 149.706 475.145C108.669 426.939 83.0857 369.737 74.8816 316.241C66.6772 262.743 75.8564 213.001 104.278 179.614C132.7 146.227 175.044 135.444 220.586 145.082C266.126 154.719 314.821 184.772 355.857 232.978Z" stroke="black" stroke-width="0.902631"/>
<path d="M380.475 204.056C421.511 252.262 447.095 309.464 455.299 362.96C463.503 416.458 454.324 466.2 425.902 499.587C397.481 532.974 355.136 543.757 309.594 534.119C264.054 524.482 215.36 494.429 174.323 446.223C133.286 398.017 107.703 340.815 99.4988 287.319C91.2944 233.821 100.474 184.079 128.895 150.692C157.317 117.305 199.661 106.522 245.203 116.16C290.743 125.797 339.438 155.85 380.475 204.056Z" stroke="black" stroke-width="0.902631"/>
<path d="M405.1 175.134C446.136 223.34 471.72 280.542 479.924 334.038C488.128 387.536 478.949 437.278 450.527 470.665C422.106 504.052 379.761 514.835 334.219 505.197C288.679 495.56 239.985 465.507 198.948 417.301C157.911 369.095 132.328 311.893 124.124 258.397C115.919 204.899 125.099 155.157 153.52 121.77C181.942 88.3831 224.286 77.6003 269.828 87.238C315.368 96.8753 364.063 126.928 405.1 175.134Z" stroke="black" stroke-width="0.902631"/>
</svg>
